<svg version="1.1" id="Layer_1" xmlns="http://www.w3.org/2000/svg" xmlns:xlink="http://www.w3.org/1999/xlink" x="0px" y="0px"
	 width="100%" viewBox="0 0 496 496" enable-background="new 0 0 496 496" xml:space="preserve">
<path fill="#000000" opacity="1.000000" stroke="none" 
	d="
M234.709045,430.040100 
	C233.852875,421.895844 233.015533,414.202759 232.178207,406.509705 
	C231.777771,406.416046 231.377335,406.322418 230.976898,406.228790 
	C226.648514,413.253662 222.317795,420.277069 217.993881,427.304657 
	C217.208420,428.581299 216.397171,429.846466 215.692337,431.167358 
	C214.502060,433.397949 213.051285,434.884796 210.172394,434.266968 
	C207.187943,433.626495 206.903381,431.532257 206.646088,429.050568 
	C205.624542,419.197754 204.460403,409.359741 203.181412,398.030853 
	C197.356522,407.720703 192.158005,416.179260 187.167725,424.758881 
	C185.032471,428.430023 182.635849,429.351471 179.162949,426.632172 
	C179.244247,424.063995 180.947388,422.301910 182.106674,420.340790 
	C187.955231,410.446808 193.920288,400.621826 199.802383,390.747528 
	C201.004089,388.730194 202.266663,387.325012 204.982285,388.052643 
	C207.750397,388.794342 209.061508,390.177155 209.343246,393.201874 
	C210.231079,402.732910 211.444778,412.233612 212.627411,422.577393 
	C216.788101,418.354858 218.609695,413.666595 221.312775,409.597687 
	C224.167725,405.300171 226.770844,400.828308 229.332947,396.346283 
	C230.615921,394.101898 232.362427,394.196686 234.459885,394.629547 
	C236.387817,395.027435 238.026962,395.601227 238.260010,397.889160 
	C239.657593,411.610229 241.056656,425.331146 242.422287,439.055359 
	C242.466461,439.499329 242.155334,439.978638 242.017197,440.418030 
	C235.778412,440.331970 235.778412,440.331970 234.709045,430.040100 
z"/>
<path fill="#000000" opacity="1.000000" stroke="none" 
	d="
M366.087219,319.957153 
	C366.913574,319.333221 367.401276,318.831055 367.994751,318.564056 
	C370.107483,317.613525 372.318604,315.185608 374.455444,318.313446 
	C376.996765,322.033417 373.471039,322.661957 371.342590,323.972412 
	C368.902039,325.475098 366.852478,327.419434 365.157013,329.723053 
	C360.874298,335.541992 361.577057,339.563477 368.009796,344.246826 
	C368.638245,337.902313 370.909973,332.561554 376.226715,328.970978 
	C379.056366,327.059998 382.162903,325.853180 385.591553,325.996246 
	C392.617920,326.289520 399.328552,331.737793 400.969147,338.292236 
	C402.944733,346.185120 398.669373,354.005188 389.705017,358.898102 
	C388.628143,359.905731 389.966675,360.708740 389.929565,361.602722 
	C389.772888,365.375916 387.027832,366.874756 383.928162,364.690094 
	C376.713531,359.605255 369.458588,354.555603 362.510986,349.119690 
	C354.814362,343.097717 353.849304,335.775330 359.172974,327.604828 
	C360.999420,324.801727 363.091187,322.214661 366.087219,319.957153 
M379.740540,353.090973 
	C381.457001,353.889740 383.283020,354.008301 385.120422,353.842438 
	C390.031067,353.399109 394.419678,348.520264 394.694092,343.262421 
	C394.953949,338.284760 391.714264,334.175873 386.807831,333.260193 
	C381.895844,332.343475 377.181396,334.910065 375.035889,339.668945 
	C372.901672,344.402832 374.256958,348.803223 379.740540,353.090973 
z"/>
<path fill="#000000" opacity="1.000000" stroke="none" 
	d="
M435.200409,203.107178 
	C435.943970,210.920776 438.844910,218.059418 437.480896,225.675003 
	C435.576019,236.309982 429.030457,242.364777 417.460052,243.970184 
	C409.320160,245.099579 400.596954,239.984177 396.648895,231.465378 
	C393.316376,224.274796 393.068481,216.344864 391.668610,208.695938 
	C391.218262,206.235443 392.832581,205.410614 394.755463,205.069199 
	C406.678375,202.952316 418.613678,200.905533 430.539673,198.806046 
	C433.673950,198.254288 434.638306,200.161774 435.200409,203.107178 
M404.923065,210.428818 
	C403.002838,211.257385 400.638153,210.732071 398.837585,212.336502 
	C399.417114,217.489594 399.876038,222.622345 401.847321,227.411621 
	C404.492188,233.837402 409.783447,237.015518 416.802094,236.677582 
	C423.602509,236.350143 428.635162,232.293930 430.743988,225.842758 
	C432.735138,219.751541 430.389282,214.052399 429.473206,208.233902 
	C429.156158,206.220093 427.394836,206.641190 425.840576,206.916580 
	C419.152191,208.101685 412.449280,209.204819 404.923065,210.428818 
z"/>
<path fill="#000000" opacity="1.000000" stroke="none" 
	d="
M81.409882,333.519714 
	C78.260368,326.355011 74.568527,319.752563 76.334175,311.777313 
	C78.411842,302.392731 84.496262,297.030273 93.460876,295.059753 
	C102.220726,293.134277 109.605049,296.138947 114.955750,303.343719 
	C119.457214,309.404938 121.676979,316.662750 124.753036,323.464661 
	C125.793892,325.766235 124.396294,326.801880 122.540886,327.624695 
	C111.452950,332.541779 100.353111,337.432983 89.305397,342.439087 
	C86.634041,343.649567 85.289825,342.694489 84.327942,340.275330 
	C83.468872,338.114777 82.493950,336.000305 81.409882,333.519714 
M85.963989,328.533661 
	C86.901901,330.438202 87.839813,332.342712 88.986786,334.671753 
	C94.769234,332.151062 100.205498,329.772369 105.648911,327.410156 
	C118.213921,321.957367 118.839981,319.569092 110.654938,308.120941 
	C110.077873,307.313812 109.438759,306.536346 108.739517,305.833649 
	C103.716751,300.786041 96.960854,299.957764 90.442177,303.558929 
	C84.097412,307.063965 81.225952,313.427490 83.040756,320.345459 
	C83.710945,322.900146 84.749886,325.358093 85.963989,328.533661 
z"/>
<path fill="#000000" opacity="1.000000" stroke="none" 
	d="
M139.566345,385.565857 
	C136.337280,388.940826 133.328903,392.038757 130.351013,395.165680 
	C128.828308,396.764679 127.376526,397.031189 125.673141,395.353302 
	C124.021164,393.725983 123.199577,392.121643 125.305115,390.344543 
	C128.473053,387.670837 131.708801,385.077484 134.502075,381.726990 
	C127.980186,379.710968 123.522598,376.562561 120.750877,371.330505 
	C119.088463,368.192474 118.285507,364.835541 119.075546,361.229675 
	C120.895340,352.923828 128.421082,346.571411 136.371964,346.679626 
	C144.720230,346.793213 151.092941,352.512665 152.716949,361.744263 
	C155.203217,360.082336 157.330566,360.605042 158.857620,363.011353 
	C160.628448,365.801849 157.909760,366.860016 156.574631,368.250000 
	C151.051788,373.999725 145.402496,379.627960 139.566345,385.565857 
M128.225143,357.777740 
	C124.277199,364.275360 125.301788,370.283905 130.924301,373.606415 
	C136.098404,376.664001 143.090866,374.238342 146.043839,368.361481 
	C148.758926,362.958008 146.568344,356.895355 140.859726,354.275269 
	C136.075867,352.079590 132.177551,353.846619 128.225143,357.777740 
z"/>
<path fill="#000000" opacity="1.000000" stroke="none" 
	d="
M150.251190,142.090271 
	C148.287689,142.412811 147.260132,143.001633 148.656052,144.704971 
	C150.236450,146.633423 151.920395,148.476761 153.512436,150.395981 
	C156.964951,154.558044 156.802582,155.166962 151.212021,158.070068 
	C144.550797,150.401138 137.811157,142.640167 131.069214,134.881195 
	C129.214783,132.747040 127.259743,130.691635 125.528778,128.461975 
	C124.407326,127.017448 121.991341,125.821335 123.507996,123.446404 
	C124.862061,121.326057 126.792938,120.128700 129.176956,121.929375 
	C130.568039,119.392624 131.511124,117.036873 132.992523,115.090927 
	C137.381622,109.325508 144.814453,106.987305 151.208374,109.088882 
	C158.282166,111.413910 163.325699,118.296234 163.347244,125.653397 
	C163.370331,133.546112 159.219650,138.856842 150.251190,142.090271 
M138.051636,118.566376 
	C134.439606,123.650261 134.342834,127.814850 137.736450,132.130249 
	C141.010147,136.293167 145.699020,137.767456 150.027451,135.865372 
	C153.939713,134.146179 156.536911,131.378952 156.684067,126.836487 
	C156.840179,122.017502 154.589752,118.462181 150.485962,116.325623 
	C146.276047,114.133827 142.154953,114.710327 138.051636,118.566376 
z"/>
<path fill="#000000" opacity="1.000000" stroke="none" 
	d="
M381.562805,127.557220 
	C383.373169,125.581703 384.992188,123.904121 386.506378,122.136711 
	C388.296234,120.047531 389.897736,120.004944 391.910187,121.990593 
	C393.861694,123.916092 393.360168,125.333542 391.716858,127.037094 
	C386.520813,132.423645 381.594666,138.086121 376.199249,143.261459 
	C364.926605,154.074326 348.179688,149.175339 344.129456,134.025040 
	C342.609619,128.339783 344.628845,123.339081 348.122375,119.176338 
	C353.461151,112.814903 359.314026,106.885414 364.935425,100.760406 
	C366.601105,98.945496 368.029083,99.512497 369.620178,100.955452 
	C371.417175,102.585175 371.861481,104.009773 369.984924,105.959335 
	C364.910614,111.231003 359.891968,116.559151 354.960663,121.964676 
	C349.937744,127.470673 349.422302,132.860657 353.269836,137.563797 
	C358.388916,143.821274 364.519257,144.421631 370.545166,138.901779 
	C374.339661,135.425964 377.745117,131.525406 381.562805,127.557220 
z"/>
<path fill="#000000" opacity="1.000000" stroke="none" 
	d="
M308.897095,74.802788 
	C307.351898,81.517464 306.188690,87.912498 304.469116,94.154251 
	C301.309875,105.621666 293.218109,110.481323 282.273315,107.866791 
	C270.940857,105.159653 266.102844,97.310143 268.500000,85.363647 
	C269.840393,78.683617 271.246338,72.014778 272.768799,65.374390 
	C273.249268,63.278755 273.197235,60.514565 276.956085,61.295143 
	C280.520325,62.035313 280.430542,64.007118 279.755432,66.803658 
	C278.234619,73.103149 276.748444,79.420029 275.553711,85.787163 
	C273.593018,96.236359 278.034668,102.053627 287.496765,101.788773 
	C292.760437,101.641434 296.090546,98.785683 297.658813,92.539879 
	C299.277435,86.093674 300.487427,79.545219 302.085297,73.093292 
	C302.707764,70.579872 302.577118,66.848732 307.031860,67.914749 
	C311.239685,68.921684 309.114990,72.011803 308.897095,74.802788 
z"/>
<path fill="#000000" opacity="1.000000" stroke="none" 
	d="
M395.040955,170.055115 
	C392.235199,176.671524 389.574921,182.947327 386.879425,189.207962 
	C386.779755,189.439529 386.336212,189.523056 385.756927,189.834946 
	C382.641174,187.293091 381.700256,184.448898 383.493866,180.431229 
	C385.636414,175.631958 388.030029,170.873383 389.196533,165.663895 
	C381.774567,161.499207 370.955200,168.047150 365.346130,157.197800 
	C373.214111,155.792419 380.236572,157.529434 387.178772,158.129410 
	C391.525177,158.505035 393.120453,157.074203 394.484436,153.550095 
	C396.810303,147.540726 399.433380,141.646408 402.087280,135.333405 
	C405.941742,138.170227 407.038727,141.043991 405.223572,145.056549 
	C403.191376,149.548874 401.465851,154.179916 399.336548,159.415176 
	C404.670471,159.892105 409.244476,160.570480 413.826874,160.632751 
	C418.150055,160.691513 420.715332,162.410141 421.741821,167.048691 
	C414.693878,168.238876 407.888123,166.332870 401.056671,166.068527 
	C397.881226,165.945648 395.910431,166.493011 395.040955,170.055115 
z"/>
<path fill="#000000" opacity="1.000000" stroke="none" 
	d="
M153.283936,397.434509 
	C150.528885,392.401611 150.558014,387.642578 152.565750,382.726532 
	C153.910080,379.434875 155.433197,378.462036 158.906754,380.515961 
	C164.866577,384.039948 170.514175,388.177032 177.020981,390.824951 
	C179.245438,383.833527 174.841202,377.952759 167.031998,377.103943 
	C165.581619,376.946320 163.977325,377.503845 162.714066,376.392578 
	C161.567276,375.383728 161.505630,373.928070 161.945190,372.695740 
	C162.723679,370.513275 164.793564,370.714233 166.603882,370.737793 
	C175.009201,370.847290 182.967026,377.576874 184.632462,385.931244 
	C186.027466,392.929047 181.634109,401.148773 174.795349,404.335968 
	C167.160522,407.894104 159.292450,405.464417 153.283936,397.434509 
M158.151840,387.453430 
	C156.837814,392.507202 158.725204,396.686829 163.280014,398.809814 
	C167.484131,400.769348 171.250427,399.815796 174.076553,395.846222 
	C169.097549,392.652283 164.264313,389.269012 158.151840,387.453430 
z"/>
<path fill="#000000" opacity="1.000000" stroke="none" 
	d="
M321.219116,393.131714 
	C324.096344,391.478210 327.141937,390.789337 329.107880,388.348358 
	C324.353516,382.769928 316.312683,383.385956 311.819885,389.808807 
	C310.249084,392.054413 308.944702,394.289581 306.082672,391.996796 
	C303.343292,389.802246 305.707336,387.757019 306.934814,386.019958 
	C311.518372,379.533661 321.001038,376.601654 328.292877,379.239014 
	C335.404358,381.811157 339.935272,389.358002 339.300323,397.573425 
	C338.757385,404.598572 332.601074,410.839996 324.909912,412.162811 
	C318.569153,413.253357 311.176971,409.342407 308.215790,403.541870 
	C306.912079,400.988098 307.576294,399.567261 310.066132,398.456329 
	C313.714294,396.828491 317.285553,395.028229 321.219116,393.131714 
M316.005859,401.834656 
	C318.204834,405.699188 322.389954,407.052521 326.794250,405.323151 
	C331.431915,403.502136 333.303192,399.511230 331.865051,393.622192 
	C326.636444,396.234741 321.516815,398.792816 316.005859,401.834656 
z"/>
<path fill="#000000" opacity="1.000000" stroke="none" 
	d="
M181.923019,121.352158 
	C172.475800,123.606583 164.886383,119.667274 161.492157,111.042702 
	C158.257675,102.824066 161.059662,94.807556 168.678452,90.482620 
	C176.140778,86.246498 184.443695,87.790779 189.695374,94.391632 
	C193.097443,98.667702 192.901596,99.710480 188.135040,102.201454 
	C182.272903,105.264969 176.394302,108.297005 170.485794,111.361847 
	C174.044876,116.976494 181.261322,117.024467 186.423813,111.921844 
	C187.354950,111.001503 188.173569,109.897675 188.788467,108.742455 
	C189.861511,106.726601 191.241455,106.942162 192.952576,107.759239 
	C194.992798,108.733467 194.948593,110.214684 194.106735,111.898666 
	C191.636292,116.840347 187.401535,119.589058 181.923019,121.352158 
M170.237640,96.635872 
	C168.050919,98.362053 166.773361,100.677551 166.532547,103.381126 
	C166.376099,105.137459 167.033737,107.038834 169.395477,105.935249 
	C174.247131,103.668167 179.183640,101.489998 183.561340,98.238914 
	C179.771439,93.528358 176.707703,93.119102 170.237640,96.635872 
z"/>
<path fill="#000000" opacity="1.000000" stroke="none" 
	d="
M97.054810,261.274933 
	C98.621719,258.370453 100.361824,257.801239 102.760574,259.926483 
	C108.318031,264.850281 109.376427,276.707977 104.786018,283.536774 
	C100.455719,289.978607 90.147728,292.463715 82.771431,288.844177 
	C75.861572,285.453461 72.187386,276.450012 74.516747,268.808899 
	C76.291641,262.986572 80.423050,259.697266 86.014374,258.049469 
	C89.022133,257.163086 90.994064,257.710846 91.440781,261.584015 
	C92.233055,268.453339 93.573593,275.259399 94.694267,282.150513 
	C101.578476,280.043976 103.648392,272.355774 99.587242,265.749176 
	C98.733131,264.359711 97.040878,263.502075 97.054810,261.274933 
M85.425079,283.030640 
	C86.647095,283.531677 87.873611,284.131805 89.190109,282.737122 
	C88.438385,276.907867 88.115990,270.901123 86.235359,265.032379 
	C78.289520,269.043304 77.846054,276.965790 85.425079,283.030640 
z"/>
<path fill="#000000" opacity="1.000000" stroke="none" 
	d="
M104.456070,218.730240 
	C96.249092,222.544861 88.809929,221.602249 83.350334,216.308090 
	C78.360512,211.469467 76.981842,204.026932 79.844650,197.383118 
	C82.786430,190.556015 90.159531,186.640793 97.374298,187.870255 
	C100.939919,188.477859 102.216057,190.039474 101.073097,193.682968 
	C98.998047,200.297760 97.173706,206.991226 95.217766,213.744949 
	C101.645538,214.378326 106.354385,209.847473 106.653320,203.248825 
	C106.720306,201.770157 106.661491,200.206940 106.248962,198.803665 
	C105.612656,196.639191 106.043243,195.243637 108.251076,194.511429 
	C110.831841,193.655518 111.463417,195.568924 112.087494,197.286957 
	C114.635292,204.300903 111.630287,212.942963 104.456070,218.730240 
M90.811874,209.906509 
	C92.218513,204.898727 94.205879,200.031616 94.821899,194.554428 
	C90.149658,193.986603 87.284378,195.973801 85.421013,199.689163 
	C83.531944,203.455780 83.928085,207.093185 86.575211,210.321533 
	C87.640900,211.621231 89.113419,213.539795 90.811874,209.906509 
z"/>
<path fill="#000000" opacity="1.000000" stroke="none" 
	d="
M410.618713,259.144958 
	C410.757202,255.155396 409.189972,254.663818 406.355835,256.367126 
	C401.891602,259.050171 400.017609,265.799500 402.385284,271.448120 
	C403.269562,273.557739 404.396820,275.533844 401.609894,276.914276 
	C398.706635,278.352386 397.664062,275.995789 396.851715,274.061554 
	C393.921021,267.083099 394.541504,260.287476 399.180542,254.312347 
	C403.138641,249.214294 408.659790,247.246735 415.111755,248.386902 
	C422.106140,249.622925 426.969574,253.363892 428.845612,260.433197 
	C431.688690,271.146118 423.679016,281.582550 412.983093,281.350220 
	C409.763397,281.280243 408.370789,280.053101 408.724945,276.853394 
	C409.363220,271.086548 409.980225,265.317322 410.618713,259.144958 
M419.422211,272.905731 
	C425.707458,266.448822 424.642761,259.243103 416.731171,256.027374 
	C414.376129,260.589600 415.682587,265.725677 414.519836,270.477875 
	C413.606873,274.209076 415.338196,275.487885 419.422211,272.905731 
z"/>
<path fill="#000000" opacity="1.000000" stroke="none" 
	d="
M102.515694,163.097778 
	C99.362801,154.459564 101.867470,147.639252 108.328262,142.240921 
	C113.906570,137.579941 120.213356,137.469818 126.552269,140.735580 
	C132.776138,143.942078 135.981705,149.349930 135.725494,156.168121 
	C135.456390,163.329834 131.749283,168.828247 125.101646,171.866531 
	C118.924370,174.689819 113.080688,173.646912 107.762634,169.535645 
	C105.632614,167.888977 103.897224,165.876694 102.515694,163.097778 
M117.067680,166.564163 
	C124.173485,166.695892 128.824677,163.137207 129.494354,157.056366 
	C130.031647,152.177689 125.123932,146.326187 119.729065,145.413116 
	C114.062355,144.454041 108.975517,148.096542 107.635155,154.073120 
	C106.534004,158.983109 109.631897,163.376816 117.067680,166.564163 
z"/>
<path fill="#000000" opacity="1.000000" stroke="none" 
	d="
M357.585938,363.392609 
	C355.877716,361.323517 354.377808,359.544678 352.922485,357.730011 
	C351.659882,356.155548 351.744537,354.790741 353.482758,353.515900 
	C355.093719,352.334412 356.556854,351.446869 358.194153,353.418365 
	C364.542297,361.062317 370.903870,368.695129 377.238861,376.306122 
	C375.462524,379.431824 373.433594,380.882263 370.484070,379.460999 
	C369.154541,381.780365 368.211517,383.950470 366.814484,385.772400 
	C360.526978,393.971893 351.601135,394.373627 344.707886,386.749481 
	C341.254333,382.929810 338.060150,378.876282 334.726715,374.947174 
	C333.092743,373.021240 331.878845,371.251495 334.596710,369.110016 
	C337.135223,367.109985 338.451324,368.716431 339.899963,370.461578 
	C342.872498,374.042389 345.799927,377.663910 348.870514,381.159241 
	C352.669830,385.484039 356.680023,386.081665 360.663940,383.102081 
	C365.052643,379.819794 366.009033,375.116852 362.990265,370.367859 
	C361.482513,367.995911 359.552582,365.892303 357.585938,363.392609 
z"/>
<path fill="#000000" opacity="1.000000" stroke="none" 
	d="
M399.539093,309.052917 
	C392.285431,308.848267 388.618469,305.272522 388.745209,298.583466 
	C388.855713,292.751465 391.014771,287.554688 394.608704,282.990814 
	C395.830505,281.439240 397.106415,279.624268 399.483185,281.596466 
	C401.545288,283.307526 401.121704,284.830231 399.584442,286.657928 
	C397.645935,288.962708 396.205078,291.609222 395.447327,294.552338 
	C394.795959,297.082153 393.441193,300.092316 396.874115,301.470825 
	C400.043732,302.743561 401.131042,299.797791 402.367493,297.686768 
	C403.375214,295.966248 404.195251,294.136414 405.187439,292.406067 
	C408.090607,287.343079 412.090576,285.484863 416.722961,286.984802 
	C420.651917,288.256989 423.584778,292.881195 423.133667,297.801483 
	C422.687012,302.672882 420.971191,307.180573 417.993896,311.129120 
	C416.811737,312.696899 415.481995,313.966583 413.481140,312.205017 
	C411.873749,310.789856 411.443604,309.312927 412.996460,307.489594 
	C415.089905,305.031586 416.415222,302.173523 416.682983,298.923035 
	C416.848297,296.916260 417.009247,294.706848 414.700317,293.758881 
	C412.218292,292.739868 411.059540,294.768494 409.994324,296.407043 
	C408.638000,298.493286 407.507385,300.726410 406.281494,302.897308 
	C404.776215,305.562927 402.905884,307.845123 399.539093,309.052917 
z"/>
<path fill="#000000" opacity="1.000000" stroke="none" 
	d="
M100.407639,245.497864 
	C91.006775,248.889465 81.976158,252.152313 72.850937,255.449356 
	C70.671967,250.906769 72.076485,248.736038 76.016724,247.394791 
	C82.902954,245.050735 89.712166,242.480408 97.538712,239.648483 
	C90.315254,235.819031 84.077744,232.360992 77.696938,229.191406 
	C74.349571,227.528641 72.748711,225.434631 74.207642,221.655212 
	C76.257095,220.704407 77.713524,222.226654 79.227417,222.985214 
	C86.672722,226.715790 94.061279,230.560501 101.445435,234.411774 
	C103.742027,235.609589 106.383675,236.360901 106.276047,239.956070 
	C106.161865,243.769791 103.486427,244.465668 100.407639,245.497864 
z"/>
<path fill="#000000" opacity="1.000000" stroke="none" 
	d="
M320.775604,123.902969 
	C317.746338,126.836342 315.321045,126.493820 313.154816,123.472473 
	C313.406708,121.433830 315.093781,120.724228 316.320526,119.699982 
	C329.460754,108.728844 342.659973,97.828239 355.780121,86.833260 
	C358.729553,84.361565 361.349915,83.199844 364.292358,87.774399 
	C349.854248,99.760246 335.454346,111.714348 320.775604,123.902969 
z"/>
<path fill="#000000" opacity="1.000000" stroke="none" 
	d="
M317.695068,91.785583 
	C319.684814,87.351097 321.637054,83.310677 323.372498,79.179176 
	C324.443909,76.628441 325.689758,75.393974 328.624390,76.753082 
	C331.366913,78.023247 331.156097,79.626701 330.100586,81.938370 
	C325.204559,92.661011 320.407654,103.429054 315.607178,114.195068 
	C314.588165,116.480347 313.662750,118.396614 310.484955,116.907616 
	C307.444641,115.483017 307.975525,113.609131 309.051392,111.250397 
	C311.945251,104.906036 314.734985,98.514183 317.695068,91.785583 
z"/>
<path fill="#000000" opacity="1.000000" stroke="none" 
	d="
M104.070251,183.053818 
	C94.888138,178.675659 86.050819,174.451782 77.334831,170.285889 
	C78.468544,163.999084 79.294075,163.516266 84.380081,165.963196 
	C95.331406,171.231995 106.249588,176.569855 117.213142,181.812958 
	C119.561264,182.935913 121.272682,184.000427 119.726799,187.052338 
	C118.215385,190.036224 116.321609,188.860489 114.337013,187.920822 
	C111.027779,186.353943 107.722176,184.779404 104.070251,183.053818 
z"/>
<path fill="#000000" opacity="1.000000" stroke="none" 
	d="
M205.841095,76.585159 
	C207.470200,75.705673 208.754852,74.900116 210.467773,75.214333 
	C212.560730,77.980850 213.137726,80.318893 209.174072,82.219749 
	C204.017319,84.692780 203.545883,89.236305 204.727829,94.118454 
	C205.701157,98.138939 207.018158,102.075798 208.164764,106.054932 
	C208.800079,108.259689 209.139679,110.291115 206.114197,111.111595 
	C203.357697,111.859146 202.281036,110.714706 201.575684,108.134361 
	C199.391098,100.142601 196.936523,92.224976 194.692047,84.248947 
	C194.245239,82.661133 192.933578,80.710945 195.492783,79.534401 
	C197.618347,78.557220 199.662598,77.945068 200.817490,80.983292 
	C202.597107,79.393898 204.063248,78.084473 205.841095,76.585159 
z"/>
<path fill="#000000" opacity="1.000000" stroke="none" 
	d="
M299.832794,420.840820 
	C298.666534,419.921265 298.108368,418.056427 296.575836,420.054321 
	C295.224670,421.815704 293.301147,422.855804 291.341949,423.789368 
	C289.653076,424.594086 288.111023,424.695740 287.259430,422.573883 
	C286.584717,420.892731 286.306305,419.117371 288.289307,418.288513 
	C296.176147,414.991821 295.462158,408.907227 293.654755,402.394012 
	C292.766388,399.192657 291.934387,395.975647 291.037628,392.776733 
	C290.344543,390.304535 291.348083,389.121735 293.750763,388.468719 
	C296.242035,387.791626 297.058624,389.037750 297.602600,391.049011 
	C299.899536,399.541199 302.156281,408.045197 304.562866,416.506439 
	C305.795563,420.840454 302.825256,420.676605 299.832794,420.840820 
z"/>
<path fill="#000000" opacity="1.000000" stroke="none" 
	d="
M382.979431,315.906677 
	C380.895172,313.596283 382.274475,311.898987 383.524078,310.405365 
	C384.809509,308.868866 386.260559,310.044281 387.563965,310.664154 
	C395.049591,314.223877 402.513855,317.828705 410.008972,321.368164 
	C412.359985,322.478424 414.000305,323.668365 412.452118,326.661285 
	C410.931763,329.600494 409.058319,328.426514 407.070648,327.476837 
	C399.143646,323.689453 391.209686,319.916504 382.979431,315.906677 
z"/>
<path fill="#000000" opacity="1.000000" stroke="none" 
	d="
M262.214569,401.264435 
	C260.125061,403.576050 257.956909,403.927979 255.769745,402.329437 
	C254.173889,401.163055 253.567749,399.420868 254.359161,397.460358 
	C255.306732,395.113037 257.167572,394.035248 259.542694,394.746033 
	C262.604767,395.662384 263.722198,397.814728 262.214569,401.264435 
z"/>
<path fill="#000000" opacity="1.000000" stroke="none" 
	d="
M236.399628,100.681534 
	C236.323395,97.270279 237.868423,95.719376 240.875900,95.689079 
	C243.237579,95.665276 244.546524,97.079803 244.993469,99.218666 
	C245.465103,101.475624 244.365936,103.211418 242.319153,103.944122 
	C239.570404,104.928116 237.471939,103.971581 236.399628,100.681534 
z"/>
<path fill="#000000" opacity="1.000000" stroke="none" 
	d="
M424.818420,332.394531 
	C422.987946,334.986664 420.971039,335.559509 418.724426,333.734222 
	C417.203339,332.498352 416.520233,330.826416 417.502594,328.886902 
	C418.509827,326.898285 420.163208,325.805664 422.354858,326.481323 
	C425.080444,327.321564 425.620972,329.469666 424.818420,332.394531 
z"/>
</svg>