<svg xmlns="http://www.w3.org/2000/svg" viewBox="0 0 38.4 65.42"><defs><style>.cls-1{fill:#d9e1e4;}.cls-2{fill:#94b5bf;}.cls-3{fill:#fbe481;}.cls-4{fill:#f8a547;opacity:0.5;}.cls-10,.cls-11,.cls-12,.cls-4,.cls-9{isolation:isolate;}.cls-5{fill:#fca100;}.cls-6{fill:#fff;}.cls-7{fill:#3e3126;}.cls-10,.cls-8,.cls-9{fill:#ffb320;}.cls-11,.cls-9{opacity:0.75;}.cls-10,.cls-12{opacity:0.35;}.cls-11,.cls-12{fill:#e2ab63;}.cls-13{fill:#ffefae;}</style></defs><g id="Layer_2" data-name="Layer 2"><g id="Layer_1-2" data-name="Layer 1"><path class="cls-1" d="M11.37,52.51v2a1.77,1.77,0,0,0,1.09,1.64c.19.08.41.17.65.25l.13.29v1.55a1.34,1.34,0,0,0,.83,1.26l.43.16V60a4.88,4.88,0,0,0,9.76,0h0l.17-.43.28-.11a1.36,1.36,0,0,0,.84-1.26V56.48c.3-.11.59-.22.82-.32a1.74,1.74,0,0,0,1.09-1.64v-2Z"/><path class="cls-2" d="M19.41,61.93a14,14,0,0,1-4.66-.79.48.48,0,0,1,.35-.9,12.53,12.53,0,0,0,8.2,0,.49.49,0,0,1,.37.9A11.3,11.3,0,0,1,19.41,61.93Z"/><path class="cls-2" d="M19.56,55.31a24.63,24.63,0,0,1-8.16-1.39.47.47,0,0,1-.27-.62.48.48,0,0,1,.6-.29h0c.08,0,7.77,2.92,14.9,0a.49.49,0,0,1,.63.26h0a.49.49,0,0,1-.26.63A19.84,19.84,0,0,1,19.56,55.31Z"/><path class="cls-2" d="M25.37,56.42v1.3l-.2.07A19.06,19.06,0,0,1,19,59a18.9,18.9,0,0,1-6-1.11V56.64L13,56.5A18.41,18.41,0,0,0,19,57.62Z"/><path class="cls-3" d="M28.67,51.29V47.42s-.46-7.17,2.87-12.53S37.9,26.3,37.9,18.68,31.33.5,19.22.5.55,11.07.55,18.68s3,10.86,6.35,16.21A18.41,18.41,0,0,1,9.77,45.32v6a.9.9,0,0,0,.52.82,22,22,0,0,0,17.86,0A.89.89,0,0,0,28.67,51.29Z"/><path class="cls-4" d="M31.21,35.13a18.41,18.41,0,0,0-2.87,10.43v6a.9.9,0,0,1-.52.82,21,21,0,0,1-6.55,1.79c0-.71-.06-1.58-.11-2.61v-6A18.41,18.41,0,0,1,24,35.13c3.33-5.35,6.35-8.59,6.35-16.21,0-6.82-5.27-16-15.08-17.84A18.82,18.82,0,0,1,18.89.74C31,.74,37.57,11.31,37.57,18.92S34.54,29.8,31.21,35.13Z"/><path class="cls-5" d="M31.05,35a16,16,0,0,0-2.23,8.25v2.44l-.66,5.71a.94.94,0,0,1-.52.82A21.3,21.3,0,0,1,21.14,54v-.19a19.51,19.51,0,0,0,5.22-1.2c.33-.15.51.09.51-.26V45.38A18.4,18.4,0,0,1,29.73,35c3.33-5.35,6.37-8.59,6.37-16.21S29.74.92,18,.58h.75c12.11,0,18.68,10.57,18.68,18.18S34.38,29.6,31.05,35Z"/><path class="cls-6" d="M6.91,35A18.48,18.48,0,0,1,9.77,45.38v6a.89.89,0,0,0,.53.82A21.26,21.26,0,0,0,16.84,54V53.8a20.61,20.61,0,0,1-5.2-1.6c-.33-.15-.52.49-.52.14l.82-3.82A18.36,18.36,0,0,0,10.32,36c-.18-.33-.37-.66-.58-1-3.33-5.35-6.37-8.59-6.37-16.21S8.25,1,20,.61h-.75A18.16,18.16,0,0,0,4.71,7.51,18.72,18.72,0,0,0,.54,18.79C.55,26.36,3.58,29.6,6.91,35Z"/><path class="cls-7" d="M4.82,32.21A.53.53,0,0,1,4.36,32C1.89,28.15,0,24.75,0,18.68A18.43,18.43,0,0,1,2.47,9.87a.54.54,0,0,1,.95.53,17.44,17.44,0,0,0-2.28,8.28c0,5.78,1.74,8.91,4.19,12.69a.55.55,0,0,1-.51.84Z"/><path class="cls-7" d="M28.73,43.7h-.05a.55.55,0,0,1-.49-.59,17.63,17.63,0,0,1,.38-2.4,19.92,19.92,0,0,1,2.51-6.11c.52-.82,1-1.6,1.51-2.35,2.66-4.07,4.76-7.29,4.76-13.57,0-7.39-6.3-17.63-18.13-17.63A17.55,17.55,0,0,0,7.29,5.55a.55.55,0,0,1-.77,0,.54.54,0,0,1,0-.76h0A18.6,18.6,0,0,1,19.18,0C31.72,0,38.4,10.87,38.4,18.72c0,6.57-2.26,10.08-4.9,14.08-.48.75-1,1.52-1.5,2.34a19.16,19.16,0,0,0-2.37,5.77,17.42,17.42,0,0,0-.36,2.26A.55.55,0,0,1,28.73,43.7Z"/><path class="cls-7" d="M19.33,54.57a22.79,22.79,0,0,1-9.27-2,1.43,1.43,0,0,1-.84-1.31V46.8a.55.55,0,0,1,.55-.54.54.54,0,0,1,.54.54v4.5a.36.36,0,0,0,.2.32,21.4,21.4,0,0,0,17.42,0,.36.36,0,0,0,.2-.32V44.66a.55.55,0,0,1,1.09-.15.38.38,0,0,1,0,.15V51.3a1.46,1.46,0,0,1-.84,1.32A21.73,21.73,0,0,1,19.33,54.57Z"/><path class="cls-7" d="M9.46,42a.54.54,0,0,1-.53-.44A18.32,18.32,0,0,0,7.48,37.1a.55.55,0,1,1,1-.46A20,20,0,0,1,10,41.33a.55.55,0,0,1-.43.64Z"/><ellipse class="cls-8" cx="29.99" cy="25.51" rx="2.29" ry="1.63" transform="translate(-4.33 44.82) rotate(-69.74)"/><circle class="cls-8" cx="31.84" cy="21.11" r="1"/><circle class="cls-9" cx="29.18" cy="21.85" r="0.4"/><circle class="cls-8" cx="27.55" cy="27.03" r="0.66"/><circle class="cls-10" cx="30.94" cy="18.05" r="0.74"/><circle class="cls-10" cx="28.54" cy="19.5" r="0.63"/><circle class="cls-10" cx="26.99" cy="23.36" r="0.53"/><circle class="cls-11" cx="25.32" cy="12.69" r="0.4"/><circle class="cls-12" cx="23.56" cy="8.89" r="0.74"/><circle class="cls-12" cx="23.12" cy="11.67" r="0.63"/><circle class="cls-12" cx="25.06" cy="15.34" r="0.53"/><path class="cls-7" d="M20.5,53.9a.43.43,0,0,1-.43-.43V38.19H17.94V53.3a.43.43,0,0,1-.85,0V38.19H15a2.9,2.9,0,0,1-2.9-2.9V34.8a2.91,2.91,0,0,1,5.81,0v2.59h2.13V34.8a2.91,2.91,0,0,1,5.81,0v.54a2.9,2.9,0,0,1-2.9,2.9H20.92V53.52A.42.42,0,0,1,20.5,53.9Zm.42-16.56H23a2.06,2.06,0,0,0,2-2V34.8a2.06,2.06,0,0,0-4.11,0ZM15,32.7a2.06,2.06,0,0,0-2,2v.54a2.06,2.06,0,0,0,2,2h2.11V34.8a2.06,2.06,0,0,0-2-2.1Z"/><ellipse class="cls-8" cx="29.03" cy="11.27" rx="2.79" ry="3.63" transform="translate(-1.91 7.7) rotate(-14.63)"/><path class="cls-6" d="M15.69,57.24h-.11a19.9,19.9,0,0,1-3.21-1,1.76,1.76,0,0,1-1.16-2,.5.5,0,0,1,.53-.43.48.48,0,0,1,.44.52h0a.94.94,0,0,0,.49,1,21.47,21.47,0,0,0,3.12.93.5.5,0,0,1,.37.58A.47.47,0,0,1,15.69,57.24Z"/><path class="cls-7" d="M16.14,57.8h0a20,20,0,0,1-4-1.18,2.18,2.18,0,0,1-1.36-2v-2a.43.43,0,0,1,.36-.49.44.44,0,0,1,.49.36.29.29,0,0,1,0,.13v2a1.34,1.34,0,0,0,.81,1.18,20.21,20.21,0,0,0,3.82,1.13.42.42,0,0,1,.34.49h0A.43.43,0,0,1,16.14,57.8Z"/><path class="cls-7" d="M19,58.11a.43.43,0,1,1-.13-.85H19a19.11,19.11,0,0,0,7-1.43,1.35,1.35,0,0,0,.82-1.25v-2a.43.43,0,0,1,.36-.49.44.44,0,0,1,.49.36.29.29,0,0,1,0,.13v2a2.17,2.17,0,0,1-1.35,2A19.82,19.82,0,0,1,19,58.11Z"/><path class="cls-7" d="M19.36,61.11A15.56,15.56,0,0,1,13.72,60a1.79,1.79,0,0,1-1.1-1.66V56.8a.43.43,0,0,1,.36-.49.44.44,0,0,1,.49.36.29.29,0,0,1,0,.13v1.54a.94.94,0,0,0,.58.87,14.28,14.28,0,0,0,5.31,1.09.44.44,0,0,1,.49.36.42.42,0,0,1-.36.49h-.13Z"/><path class="cls-7" d="M19.08,61.11a.43.43,0,1,1-.13-.85h.13a14.7,14.7,0,0,0,5.32-1.09A.92.92,0,0,0,25,58.3V56.8a.43.43,0,0,1,.36-.49.44.44,0,0,1,.49.36.29.29,0,0,1,0,.13v1.54A1.79,1.79,0,0,1,24.72,60,15.36,15.36,0,0,1,19.08,61.11Z"/><path class="cls-7" d="M19.22,65.42a5.31,5.31,0,0,1-5.31-5.31.43.43,0,0,1,.36-.49.44.44,0,0,1,.49.36.29.29,0,0,1,0,.13,4.46,4.46,0,0,0,8.92,0h0a.43.43,0,0,1,.36-.49.44.44,0,0,1,.49.36.29.29,0,0,1,0,.13A5.31,5.31,0,0,1,19.22,65.42Z"/><circle class="cls-7" cx="7.15" cy="35.24" r="0.6"/><circle class="cls-7" cx="9.77" cy="43.55" r="0.6"/><circle class="cls-7" cx="4.01" cy="8.72" r="0.6"/><path class="cls-7" d="M5.2,23.7H5.08a.3.3,0,0,1-.17-.39h0l1.65-3.9A.3.3,0,0,1,7,19.25a.29.29,0,0,1,.16.39h0L5.46,23.54A.29.29,0,0,1,5.2,23.7Z"/><path class="cls-7" d="M7.39,21.8H7.27a.3.3,0,0,1-.16-.39h0L8,19.33a.29.29,0,0,1,.39-.16h0a.32.32,0,0,1,.16.4l-.88,2.08A.32.32,0,0,1,7.39,21.8Z"/><ellipse class="cls-13" cx="7.97" cy="14.3" rx="3.13" ry="2.12" transform="translate(-8.32 12.65) rotate(-55.09)"/><ellipse class="cls-13" cx="13.01" cy="10.94" rx="1.56" ry="1.06" transform="translate(-3.41 15.35) rotate(-55.09)"/></g></g></svg>